<?xml version="1.0" encoding="UTF-8"?><svg id="a" xmlns="http://www.w3.org/2000/svg" viewBox="0 0 868.18 601.1"><rect width="868.18" height="601.1" style="fill:#fff;"/><polygon points="158.97 96.13 119.37 164.72 198.58 164.72 158.97 96.13" style="fill:#fff; stroke:#231815; stroke-miterlimit:10; stroke-width:6px;"/><polygon points="247.63 48.66 208.02 117.26 287.23 117.26 247.63 48.66" style="fill:#fff; stroke:#231815; stroke-miterlimit:10; stroke-width:6px;"/><line x1="160.32" y1="92.93" x2="249.21" y2="45.33" style="fill:none; stroke:#231815; stroke-miterlimit:10; stroke-width:6px;"/><polygon points="469.08 157.97 429.48 226.57 508.69 226.57 469.08 157.97" style="fill:#fff; stroke:#231815; stroke-miterlimit:10; stroke-width:6px;"/><polygon points="550.64 113.45 511.04 182.05 590.25 182.05 550.64 113.45" style="fill:#fff; stroke:#231815; stroke-miterlimit:10; stroke-width:6px;"/><polygon points="630.71 70.73 591.1 139.33 670.31 139.33 630.71 70.73" style="fill:#fff; stroke:#231815; stroke-miterlimit:10; stroke-width:6px;"/><polygon points="707.11 27.74 667.51 96.34 746.72 96.34 707.11 27.74" style="fill:#fff; stroke:#231815; stroke-miterlimit:10; stroke-width:6px;"/><line x1="470.48" y1="154.76" x2="708.32" y2="24.04" style="fill:none; stroke:#231815; stroke-miterlimit:10; stroke-width:6px;"/><g><path d="m146.4,148.48c0-.21.05-.34.15-.39s.26-.07.5-.07c.78,0,1.28-.06,1.5-.18.22-.12.38-.4.47-.83l3.25-13.03c.06-.23.09-.38.09-.45,0-.18-.11-.29-.33-.34s-.58-.07-1.06-.07c-.18,0-.3,0-.38-.01s-.13-.03-.19-.08c-.05-.04-.08-.11-.08-.21,0-.21.05-.34.15-.39.1-.05.26-.07.5-.07h7.46c1.25,0,2.23.32,2.95.95.72.63,1.08,1.41,1.08,2.32,0,.96-.43,1.88-1.28,2.76s-1.98,1.48-3.39,1.8c.95.11,1.74.45,2.37,1.03.64.58.96,1.33.96,2.27,0,1.3-.62,2.5-1.85,3.61-1.23,1.11-2.67,1.66-4.33,1.66h-7.93c-.16,0-.27,0-.33-.01s-.13-.03-.18-.08c-.05-.04-.08-.11-.08-.21Zm4.31-.99c-.03.14-.05.24-.05.3s0,.11.02.14c.02.03.08.06.19.08.11.02.29.03.53.03h2.98c1.27,0,2.35-.5,3.24-1.5.89-1,1.33-2.11,1.33-3.32,0-.24-.02-.48-.07-.71-.05-.23-.14-.51-.28-.85-.14-.33-.38-.61-.73-.82-.35-.21-.79-.32-1.3-.32h-4.13l-1.68,6.74s-.01.09-.04.23Zm1.87-7.5h3.18c1.3,0,2.4-.47,3.28-1.42.88-.95,1.32-1.97,1.32-3.06,0-.24-.02-.47-.07-.7s-.14-.47-.29-.75-.38-.5-.71-.67-.73-.25-1.2-.25h-2.84c-.42,0-.69.04-.83.12-.14.08-.26.32-.36.73l-1.47,6.01Z" style="fill:#231815;"/><path d="m162.57,156.6c0-.12.03-.2.09-.23.06-.03.15-.04.29-.04.46,0,.75-.03.87-.1.13-.07.22-.23.27-.48l1.89-7.6c.04-.13.05-.22.05-.26,0-.1-.06-.17-.19-.2s-.34-.04-.62-.04c-.1,0-.18,0-.22,0-.04,0-.08-.02-.11-.04s-.05-.07-.05-.12c0-.18.09-.27.27-.27s.46,0,.83.02.66.02.85.02.46,0,.83-.02c.37-.01.64-.02.82-.02.13,0,.2.06.2.18,0,.11-.03.18-.09.21s-.17.04-.34.04c-.43,0-.7.03-.83.1-.12.07-.21.22-.27.46l-1.11,4.46,4.93-4.1c.3-.25.46-.46.46-.63s-.12-.27-.36-.29c-.13,0-.2-.06-.2-.17,0-.18.09-.27.27-.27.16,0,.41,0,.74.02.34.01.59.02.75.02.11,0,.28,0,.5-.02s.38-.02.47-.02c.1,0,.15.06.15.17,0,.16-.08.25-.25.27-.61.05-1.34.44-2.19,1.15l-2.58,2.14,1.83,4.85c.08.21.18.36.29.42.11.07.3.11.55.12.17,0,.25.06.25.17,0,.18-.08.27-.24.27-.13,0-.34,0-.63-.02-.29-.01-.5-.02-.64-.02-.18,0-.44,0-.79.02-.35.01-.61.02-.78.02-.13,0-.2-.06-.19-.19,0-.17.09-.25.27-.25.47,0,.71-.15.71-.46,0-.05-.03-.14-.08-.28l-1.46-3.9-1.93,1.62-.5,2.01c-.12.43-.19.69-.19.78,0,.05,0,.09.03.12.02.03.09.05.22.08.13.03.32.04.57.04.11,0,.19,0,.23,0,.04,0,.07.02.1.05.03.03.04.07.04.12,0,.17-.09.26-.27.26s-.46,0-.83-.02c-.38-.01-.66-.02-.85-.02s-.46,0-.83.02c-.37.01-.64.02-.82.02-.13,0-.2-.06-.2-.17Z" style="fill:#231815;"/></g><g><path d="m235.21,99.8c0-.21.05-.34.15-.39s.26-.07.5-.07c.78,0,1.28-.06,1.5-.18.22-.12.38-.4.47-.83l3.25-13.03c.06-.23.09-.38.09-.45,0-.18-.11-.29-.33-.34s-.58-.07-1.06-.07c-.18,0-.3,0-.38-.01s-.13-.03-.19-.08c-.05-.04-.08-.11-.08-.21,0-.21.05-.34.15-.39.1-.05.26-.07.5-.07h7.46c1.25,0,2.23.32,2.95.95.72.63,1.08,1.41,1.08,2.32,0,.96-.43,1.88-1.28,2.76s-1.98,1.48-3.39,1.8c.95.11,1.74.45,2.37,1.03.64.58.96,1.33.96,2.27,0,1.3-.62,2.5-1.85,3.61-1.23,1.11-2.67,1.66-4.33,1.66h-7.93c-.16,0-.27,0-.33-.01s-.13-.03-.18-.08c-.05-.04-.08-.11-.08-.21Zm4.31-.99c-.03.14-.05.24-.05.3s0,.11.02.14c.02.03.08.06.19.08.11.02.29.03.53.03h2.98c1.27,0,2.35-.5,3.24-1.5.89-1,1.33-2.11,1.33-3.32,0-.24-.02-.48-.07-.71-.05-.23-.14-.51-.28-.85-.14-.33-.38-.61-.73-.82-.35-.21-.79-.32-1.3-.32h-4.13l-1.68,6.74s-.01.09-.04.23Zm1.87-7.5h3.18c1.3,0,2.4-.47,3.28-1.42.88-.95,1.32-1.97,1.32-3.06,0-.24-.02-.47-.07-.7s-.14-.47-.29-.75-.38-.5-.71-.67-.73-.25-1.2-.25h-2.84c-.42,0-.69.04-.83.12-.14.08-.26.32-.36.73l-1.47,6.01Z" style="fill:#231815;"/><path d="m251.38,107.91c0-.12.03-.2.09-.23.06-.03.15-.04.29-.04.46,0,.75-.03.87-.1.13-.07.22-.23.27-.48l1.89-7.6c.04-.13.05-.22.05-.26,0-.1-.06-.17-.19-.2s-.34-.04-.62-.04c-.1,0-.18,0-.22,0-.04,0-.08-.02-.11-.04s-.05-.07-.05-.12c0-.18.09-.27.27-.27s.46,0,.83.02.66.02.85.02.46,0,.83-.02c.37-.01.64-.02.82-.02.13,0,.2.06.2.18,0,.11-.03.18-.09.21s-.17.04-.34.04c-.43,0-.7.03-.83.1-.12.07-.21.22-.27.46l-1.11,4.46,4.93-4.1c.3-.25.46-.46.46-.63s-.12-.27-.36-.29c-.13,0-.2-.06-.2-.17,0-.18.09-.27.27-.27.16,0,.41,0,.74.02.34.01.59.02.75.02.11,0,.28,0,.5-.02s.38-.02.47-.02c.1,0,.15.06.15.17,0,.16-.08.25-.25.27-.61.05-1.34.44-2.19,1.15l-2.58,2.14,1.83,4.85c.08.21.18.36.29.42.11.07.3.11.55.12.17,0,.25.06.25.17,0,.18-.08.27-.24.27-.13,0-.34,0-.63-.02-.29-.01-.5-.02-.64-.02-.18,0-.44,0-.79.02-.35.01-.61.02-.78.02-.13,0-.2-.06-.19-.19,0-.17.09-.25.27-.25.47,0,.71-.15.71-.46,0-.05-.03-.14-.08-.28l-1.46-3.9-1.93,1.62-.5,2.01c-.12.43-.19.69-.19.78,0,.05,0,.09.03.12.02.03.09.05.22.08.13.03.32.04.57.04.11,0,.19,0,.23,0,.04,0,.07.02.1.05.03.03.04.07.04.12,0,.17-.09.26-.27.26s-.46,0-.83-.02c-.38-.01-.66-.02-.85-.02s-.46,0-.83.02c-.37.01-.64.02-.82.02-.13,0-.2-.06-.2-.17Z" style="fill:#231815;"/></g><g><path d="m694.09,80.02c0-.21.05-.34.15-.39s.26-.07.5-.07c.78,0,1.28-.06,1.5-.18.22-.12.38-.4.47-.83l3.25-13.03c.06-.23.09-.38.09-.45,0-.18-.11-.29-.33-.34s-.58-.07-1.06-.07c-.18,0-.3,0-.38-.01s-.13-.03-.19-.08-.08-.11-.08-.21c0-.21.05-.34.15-.39s.26-.07.5-.07h7.46c1.25,0,2.23.32,2.95.95.72.63,1.08,1.41,1.08,2.32,0,.96-.43,1.88-1.28,2.76s-1.98,1.48-3.39,1.8c.95.11,1.74.45,2.37,1.03.64.58.96,1.33.96,2.27,0,1.3-.62,2.5-1.85,3.61-1.23,1.11-2.67,1.66-4.33,1.66h-7.93c-.16,0-.27,0-.33-.01s-.13-.03-.18-.08c-.05-.04-.08-.11-.08-.21Zm4.31-.99c-.03.14-.05.24-.05.3s0,.11.02.14c.02.03.08.06.19.08.11.02.29.03.53.03h2.98c1.27,0,2.35-.5,3.24-1.5.89-1,1.33-2.11,1.33-3.32,0-.24-.02-.48-.07-.71-.05-.23-.14-.51-.28-.85-.14-.33-.38-.61-.73-.82-.35-.21-.79-.32-1.3-.32h-4.13l-1.68,6.74s-.01.09-.04.23Zm1.87-7.5h3.18c1.3,0,2.4-.47,3.28-1.42s1.32-1.97,1.32-3.06c0-.24-.02-.47-.07-.7-.05-.22-.14-.47-.29-.75s-.38-.5-.71-.67-.73-.25-1.2-.25h-2.84c-.42,0-.69.04-.83.12-.14.08-.26.32-.36.73l-1.47,6.01Z" style="fill:#231815;"/><path d="m710.26,88.14c0-.12.03-.2.08-.23s.15-.04.29-.04c.46,0,.75-.03.87-.1.13-.07.22-.23.27-.48l1.89-7.6c.04-.13.05-.22.05-.26,0-.1-.07-.17-.2-.2s-.34-.04-.62-.04c-.1,0-.18,0-.22,0-.04,0-.08-.02-.11-.04-.03-.03-.05-.07-.05-.12,0-.18.09-.27.27-.27s.46,0,.83.02.66.02.85.02.46,0,.83-.02c.37-.01.64-.02.82-.02.13,0,.2.06.2.18,0,.11-.03.18-.08.21-.06.03-.17.04-.34.04-.43,0-.7.03-.83.1-.12.07-.21.22-.27.46l-1.11,4.46,4.93-4.1c.3-.25.46-.46.46-.63s-.12-.27-.36-.29c-.13,0-.2-.06-.2-.17,0-.18.09-.27.27-.27.16,0,.41,0,.75.02s.59.02.75.02c.11,0,.28,0,.5-.02s.38-.02.47-.02c.1,0,.15.06.15.17,0,.16-.08.25-.25.27-.61.05-1.34.44-2.19,1.15l-2.58,2.14,1.83,4.85c.08.21.18.36.29.42.11.07.3.11.55.12.17,0,.25.06.25.17,0,.18-.08.27-.24.27-.13,0-.34,0-.63-.02-.29-.01-.5-.02-.64-.02-.18,0-.44,0-.79.02-.35.01-.61.02-.78.02-.13,0-.2-.06-.19-.19,0-.17.09-.25.27-.25.47,0,.71-.15.71-.46,0-.05-.03-.14-.08-.28l-1.46-3.9-1.93,1.62-.5,2.01c-.12.43-.19.69-.19.78,0,.05,0,.09.03.12.02.03.09.05.22.08.13.03.32.04.57.04.11,0,.19,0,.23,0,.04,0,.07.02.1.05.03.03.04.07.04.12,0,.17-.09.26-.27.26s-.46,0-.83-.02c-.38-.01-.66-.02-.85-.02s-.46,0-.83.02c-.37.01-.64.02-.82.02-.13,0-.2-.06-.2-.17Z" style="fill:#231815;"/></g><g><path d="m457.48,208.82c0-.21.05-.34.15-.39s.26-.07.5-.07c.78,0,1.28-.06,1.5-.18.22-.12.38-.4.47-.83l3.25-13.03c.06-.23.09-.38.09-.45,0-.18-.11-.29-.33-.34s-.58-.07-1.06-.07c-.18,0-.3,0-.38-.01s-.13-.03-.19-.08-.08-.11-.08-.21c0-.21.05-.34.15-.39s.26-.07.5-.07h7.46c1.25,0,2.23.32,2.95.95.72.63,1.08,1.41,1.08,2.32,0,.96-.43,1.88-1.28,2.76s-1.98,1.48-3.39,1.8c.95.11,1.74.45,2.37,1.03.64.58.96,1.33.96,2.27,0,1.3-.62,2.5-1.85,3.61-1.23,1.11-2.67,1.66-4.33,1.66h-7.93c-.16,0-.27,0-.33-.01s-.13-.03-.18-.08c-.05-.04-.08-.11-.08-.21Zm4.31-.99c-.03.14-.05.24-.05.3s0,.11.02.14c.02.03.08.06.19.08.11.02.29.03.53.03h2.98c1.27,0,2.35-.5,3.24-1.5.89-1,1.33-2.11,1.33-3.32,0-.24-.02-.48-.07-.71-.05-.23-.14-.51-.28-.85-.14-.33-.38-.61-.73-.82-.35-.21-.79-.32-1.3-.32h-4.13l-1.68,6.74s-.01.09-.04.23Zm1.87-7.5h3.18c1.3,0,2.4-.47,3.28-1.42s1.32-1.97,1.32-3.06c0-.24-.02-.47-.07-.7-.05-.22-.14-.47-.29-.75s-.38-.5-.71-.67-.73-.25-1.2-.25h-2.84c-.42,0-.69.04-.83.12-.14.08-.26.32-.36.73l-1.47,6.01Z" style="fill:#231815;"/><path d="m473.33,212.63c0-1.37.17-2.43.52-3.18.48-1.11,1.29-1.67,2.43-1.67.24,0,.49.03.74.1s.54.22.86.47c.32.25.58.58.78.99.37.79.56,1.88.56,3.28s-.17,2.41-.52,3.16c-.51,1.08-1.32,1.63-2.43,1.63-.42,0-.84-.11-1.27-.32s-.77-.58-1.04-1.09c-.42-.77-.63-1.89-.63-3.37Zm1.16-.17c0,1.41.05,2.39.15,2.95.11.61.33,1.04.64,1.3.31.26.64.39.99.39.37,0,.72-.14,1.03-.42.31-.28.52-.72.61-1.33.1-.6.16-1.56.15-2.9,0-1.3-.05-2.21-.14-2.73-.12-.61-.35-1.03-.67-1.27-.33-.24-.65-.37-.98-.37-.12,0-.25.02-.38.05-.13.04-.29.11-.47.21-.19.1-.35.29-.5.55-.14.26-.25.58-.32.98-.07.51-.11,1.36-.11,2.58Z" style="fill:#231815;"/></g><g><path d="m535.24,165.21c0-.21.05-.34.15-.39s.26-.07.5-.07c.78,0,1.28-.06,1.5-.18.22-.12.38-.4.47-.83l3.25-13.03c.06-.23.09-.38.09-.45,0-.18-.11-.29-.33-.34s-.58-.07-1.06-.07c-.18,0-.3,0-.38-.01s-.13-.03-.19-.08-.08-.11-.08-.21c0-.21.05-.34.15-.39s.26-.07.5-.07h7.46c1.25,0,2.23.32,2.95.95.72.63,1.08,1.41,1.08,2.32,0,.96-.43,1.88-1.28,2.76s-1.98,1.48-3.39,1.8c.95.11,1.74.45,2.37,1.03.64.58.96,1.33.96,2.27,0,1.3-.62,2.5-1.85,3.61-1.23,1.11-2.67,1.66-4.33,1.66h-7.93c-.16,0-.27,0-.33-.01s-.13-.03-.18-.08c-.05-.04-.08-.11-.08-.21Zm4.31-.99c-.04.14-.05.24-.05.3s0,.11.02.14c.02.03.08.06.19.08.11.02.29.03.53.03h2.98c1.27,0,2.35-.5,3.24-1.5.89-1,1.33-2.11,1.33-3.32,0-.24-.02-.48-.07-.71-.05-.23-.14-.51-.28-.85-.14-.33-.38-.61-.73-.82-.35-.21-.79-.32-1.3-.32h-4.13l-1.68,6.74s-.01.09-.04.23Zm1.87-7.5h3.18c1.3,0,2.4-.47,3.28-1.42s1.32-1.97,1.32-3.06c0-.24-.02-.47-.07-.7s-.14-.47-.29-.75-.38-.5-.71-.67-.73-.25-1.2-.25h-2.84c-.42,0-.69.04-.83.12-.14.08-.26.32-.36.73l-1.47,6.01Z" style="fill:#231815;"/><path d="m553.67,168.19c0,.42-.25.81-.78.81s-.77-.39-.77-.81.25-.8.77-.8.78.38.78.8Zm4.64,0c0,.42-.24.81-.77.81s-.77-.39-.77-.81.24-.8.77-.8.77.38.77.8Zm4.66,0c0,.42-.25.81-.78.81s-.77-.39-.77-.81.25-.8.77-.8.78.38.78.8Z" style="fill:#231815;"/></g><g><path d="m611.8,122.4c0-.21.05-.34.15-.39s.26-.07.5-.07c.78,0,1.28-.06,1.5-.18.22-.12.38-.4.47-.83l3.25-13.03c.06-.23.09-.38.09-.45,0-.18-.11-.29-.33-.34s-.58-.07-1.06-.07c-.18,0-.3,0-.38-.01s-.13-.03-.19-.08c-.05-.04-.08-.11-.08-.21,0-.21.05-.34.15-.39.1-.05.26-.07.5-.07h7.46c1.25,0,2.23.32,2.95.95s1.08,1.41,1.08,2.32c0,.96-.43,1.88-1.28,2.76s-1.98,1.48-3.39,1.8c.95.11,1.74.45,2.37,1.03.64.58.96,1.33.96,2.27,0,1.3-.62,2.5-1.85,3.61-1.23,1.11-2.67,1.66-4.33,1.66h-7.93c-.16,0-.27,0-.33-.01s-.13-.03-.18-.08c-.05-.04-.08-.11-.08-.21Zm4.31-.99c-.03.14-.05.24-.05.3s0,.11.02.14c.02.03.08.06.19.08.11.02.29.03.53.03h2.98c1.27,0,2.35-.5,3.24-1.5.89-1,1.33-2.11,1.33-3.32,0-.24-.02-.48-.07-.71-.05-.23-.14-.51-.28-.85-.14-.33-.38-.61-.73-.82-.35-.21-.79-.32-1.3-.32h-4.13l-1.68,6.74s-.01.09-.04.23Zm1.87-7.5h3.18c1.3,0,2.4-.47,3.28-1.42.88-.95,1.33-1.97,1.33-3.06,0-.24-.02-.47-.07-.7-.05-.22-.14-.47-.29-.75s-.38-.5-.71-.67-.73-.25-1.2-.25h-2.84c-.42,0-.69.04-.83.12-.14.08-.26.32-.36.73l-1.47,6.01Z" style="fill:#231815;"/><path d="m627.98,130.51c0-.12.03-.2.09-.23.06-.03.15-.04.29-.04.46,0,.75-.03.88-.1.13-.07.22-.23.27-.48l1.89-7.6c.04-.13.05-.22.05-.26,0-.1-.06-.17-.19-.2s-.34-.04-.62-.04c-.11,0-.18,0-.22,0-.04,0-.08-.02-.11-.04-.03-.03-.05-.07-.05-.12,0-.18.09-.27.27-.27s.46,0,.83.02.66.02.85.02.46,0,.83-.02.64-.02.82-.02c.13,0,.2.06.2.18,0,.11-.03.18-.09.21-.06.03-.17.04-.34.04-.43,0-.71.03-.83.1-.12.07-.21.22-.27.46l-1.11,4.46,4.93-4.1c.3-.25.46-.46.46-.63s-.12-.27-.36-.29c-.13,0-.2-.06-.2-.17,0-.18.09-.27.27-.27.16,0,.41,0,.74.02.34.01.59.02.75.02.11,0,.28,0,.5-.02s.38-.02.47-.02c.11,0,.16.06.15.17,0,.16-.08.25-.25.27-.61.05-1.34.44-2.19,1.15l-2.58,2.14,1.83,4.85c.08.21.18.36.29.42.11.07.3.11.55.12.17,0,.25.06.25.17,0,.18-.08.27-.24.27-.13,0-.34,0-.63-.02-.29-.01-.5-.02-.64-.02-.18,0-.44,0-.79.02-.35.01-.61.02-.78.02-.13,0-.2-.06-.19-.19,0-.17.09-.25.27-.25.47,0,.71-.15.71-.46,0-.05-.03-.14-.08-.28l-1.46-3.9-1.93,1.62-.5,2.01c-.12.43-.19.69-.19.78,0,.05,0,.09.03.12s.09.05.22.08c.12.03.32.04.57.04.11,0,.19,0,.23,0,.04,0,.08.02.1.05.03.03.04.07.04.12,0,.17-.09.26-.27.26s-.46,0-.83-.02c-.38-.01-.66-.02-.85-.02s-.46,0-.83.02c-.37.01-.64.02-.82.02-.13,0-.2-.06-.2-.17Z" style="fill:#231815;"/><path d="m639.58,125.17h8.16v.71h-8.16v-.71Z" style="fill:#231815;"/><path d="m650.68,122.7v-.44c1.13,0,1.99-.3,2.57-.9.15,0,.24.02.26.05.03.04.04.14.04.31v7.84c0,.28.07.46.21.55.14.09.52.13,1.14.13h.46v.44c-.33-.03-1.08-.04-2.27-.04s-1.94.01-2.26.04v-.44h.44c.59,0,.95-.04,1.09-.13.14-.08.21-.27.21-.55v-7.24c-.5.25-1.14.37-1.91.37Z" style="fill:#231815;"/></g><polygon points="469.08 503.33 429.48 571.93 508.69 571.93 469.08 503.33" style="fill:#fff; stroke:#231815; stroke-miterlimit:10; stroke-width:6px;"/><polygon points="550.64 458.81 511.04 527.41 590.25 527.41 550.64 458.81" style="fill:#fff; stroke:#231815; stroke-miterlimit:10; stroke-width:6px;"/><polygon points="630.71 416.09 591.1 484.69 670.31 484.69 630.71 416.09" style="fill:#fff; stroke:#231815; stroke-miterlimit:10; stroke-width:6px;"/><polygon points="707.11 373.11 667.51 441.7 746.72 441.7 707.11 373.11" style="fill:#fff; stroke:#231815; stroke-miterlimit:10; stroke-width:6px;"/><line x1="470.48" y1="500.12" x2="708.32" y2="369.4" style="fill:none; stroke:#231815; stroke-miterlimit:10; stroke-width:6px;"/><g><path d="m694.09,425.38c0-.21.05-.34.15-.39s.26-.07.5-.07c.78,0,1.28-.06,1.5-.18.22-.12.38-.4.47-.83l3.25-13.03c.06-.23.09-.38.09-.45,0-.18-.11-.29-.33-.34s-.58-.07-1.06-.07c-.18,0-.3,0-.38-.01s-.13-.03-.19-.08-.08-.11-.08-.21c0-.21.05-.34.15-.39s.26-.07.5-.07h7.46c1.25,0,2.23.32,2.95.95.72.63,1.08,1.41,1.08,2.32,0,.96-.43,1.88-1.28,2.76s-1.98,1.48-3.39,1.8c.95.11,1.74.45,2.37,1.03.64.58.96,1.33.96,2.27,0,1.3-.62,2.5-1.85,3.61-1.23,1.11-2.67,1.66-4.33,1.66h-7.93c-.16,0-.27,0-.33-.01s-.13-.03-.18-.08c-.05-.04-.08-.11-.08-.21Zm4.31-.99c-.03.14-.05.24-.05.3s0,.11.02.14c.02.03.08.06.19.08.11.02.29.03.53.03h2.98c1.27,0,2.35-.5,3.24-1.5.89-1,1.33-2.11,1.33-3.32,0-.24-.02-.48-.07-.71-.05-.23-.14-.51-.28-.85-.14-.33-.38-.61-.73-.82-.35-.21-.79-.32-1.3-.32h-4.13l-1.68,6.74s-.01.09-.04.23Zm1.87-7.5h3.18c1.3,0,2.4-.47,3.28-1.42s1.32-1.97,1.32-3.06c0-.24-.02-.47-.07-.7-.05-.22-.14-.47-.29-.75s-.38-.5-.71-.67-.73-.25-1.2-.25h-2.84c-.42,0-.69.04-.83.12-.14.08-.26.32-.36.73l-1.47,6.01Z" style="fill:#231815;"/><path d="m710.26,433.5c0-.12.03-.2.08-.23s.15-.04.29-.04c.46,0,.75-.03.87-.1.13-.07.22-.23.27-.48l1.89-7.6c.04-.13.05-.22.05-.26,0-.1-.07-.17-.2-.2s-.34-.04-.62-.04c-.1,0-.18,0-.22,0-.04,0-.08-.02-.11-.04-.03-.03-.05-.07-.05-.12,0-.18.09-.27.27-.27s.46,0,.83.02.66.02.85.02.46,0,.83-.02c.37-.01.64-.02.82-.02.13,0,.2.06.2.18,0,.11-.03.18-.08.21-.06.03-.17.04-.34.04-.43,0-.7.03-.83.1-.12.07-.21.22-.27.46l-1.11,4.46,4.93-4.1c.3-.25.46-.46.46-.63s-.12-.27-.36-.29c-.13,0-.2-.06-.2-.17,0-.18.09-.27.27-.27.16,0,.41,0,.75.02s.59.02.75.02c.11,0,.28,0,.5-.02s.38-.02.47-.02c.1,0,.15.06.15.17,0,.16-.08.25-.25.27-.61.05-1.34.44-2.19,1.15l-2.58,2.14,1.83,4.85c.08.21.18.36.29.42.11.07.3.11.55.12.17,0,.25.06.25.17,0,.18-.08.27-.24.27-.13,0-.34,0-.63-.02-.29-.01-.5-.02-.64-.02-.18,0-.44,0-.79.02-.35.01-.61.02-.78.02-.13,0-.2-.06-.19-.19,0-.17.09-.25.27-.25.47,0,.71-.15.71-.46,0-.05-.03-.14-.08-.28l-1.46-3.9-1.93,1.62-.5,2.01c-.12.43-.19.69-.19.78,0,.05,0,.09.03.12.02.03.09.05.22.08.13.03.32.04.57.04.11,0,.19,0,.23,0,.04,0,.07.02.1.05.03.03.04.07.04.12,0,.17-.09.26-.27.26s-.46,0-.83-.02c-.38-.01-.66-.02-.85-.02s-.46,0-.83.02c-.37.01-.64.02-.82.02-.13,0-.2-.06-.2-.17Z" style="fill:#231815;"/></g><g><path d="m457.48,554.18c0-.21.05-.34.15-.39s.26-.07.5-.07c.78,0,1.28-.06,1.5-.18.22-.12.38-.4.47-.83l3.25-13.03c.06-.23.09-.38.09-.45,0-.18-.11-.29-.33-.34s-.58-.07-1.06-.07c-.18,0-.3,0-.38-.01s-.13-.03-.19-.08-.08-.11-.08-.21c0-.21.05-.34.15-.39s.26-.07.5-.07h7.46c1.25,0,2.23.32,2.95.95.72.63,1.08,1.41,1.08,2.32,0,.96-.43,1.88-1.28,2.76s-1.98,1.48-3.39,1.8c.95.11,1.74.45,2.37,1.03.64.58.96,1.33.96,2.27,0,1.3-.62,2.5-1.85,3.61-1.23,1.11-2.67,1.66-4.33,1.66h-7.93c-.16,0-.27,0-.33-.01s-.13-.03-.18-.08c-.05-.04-.08-.11-.08-.21Zm4.31-.99c-.03.14-.05.24-.05.3s0,.11.02.14c.02.03.08.06.19.08.11.02.29.03.53.03h2.98c1.27,0,2.35-.5,3.24-1.5.89-1,1.33-2.11,1.33-3.32,0-.24-.02-.48-.07-.71-.05-.23-.14-.51-.28-.85-.14-.33-.38-.61-.73-.82-.35-.21-.79-.32-1.3-.32h-4.13l-1.68,6.74s-.01.09-.04.23Zm1.87-7.5h3.18c1.3,0,2.4-.47,3.28-1.42s1.32-1.97,1.32-3.06c0-.24-.02-.47-.07-.7-.05-.22-.14-.47-.29-.75s-.38-.5-.71-.67-.73-.25-1.2-.25h-2.84c-.42,0-.69.04-.83.12-.14.08-.26.32-.36.73l-1.47,6.01Z" style="fill:#231815;"/><path d="m473.33,558c0-1.37.17-2.43.52-3.18.48-1.11,1.29-1.67,2.43-1.67.24,0,.49.03.74.1s.54.22.86.47c.32.25.58.58.78.99.37.79.56,1.88.56,3.28s-.17,2.41-.52,3.16c-.51,1.08-1.32,1.63-2.43,1.63-.42,0-.84-.11-1.27-.32s-.77-.58-1.04-1.09c-.42-.77-.63-1.89-.63-3.37Zm1.16-.17c0,1.41.05,2.39.15,2.95.11.61.33,1.04.64,1.3.31.26.64.39.99.39.37,0,.72-.14,1.03-.42.31-.28.52-.72.61-1.33.1-.6.16-1.56.15-2.9,0-1.3-.05-2.21-.14-2.73-.12-.61-.35-1.03-.67-1.27-.33-.24-.65-.37-.98-.37-.12,0-.25.02-.38.05-.13.04-.29.11-.47.21-.19.1-.35.29-.5.55-.14.26-.25.58-.32.98-.07.51-.11,1.36-.11,2.58Z" style="fill:#231815;"/></g><polygon points="786.06 413.4 746.46 482 825.67 482 786.06 413.4" style="fill:#fff; stroke:#231815; stroke-miterlimit:10; stroke-width:6px;"/><g><path d="m774.46,464.25c0-.21.05-.34.15-.39s.26-.07.5-.07c.78,0,1.28-.06,1.5-.18.22-.12.38-.4.47-.83l3.25-13.03c.06-.23.09-.38.09-.45,0-.18-.11-.29-.33-.34s-.58-.07-1.06-.07c-.18,0-.3,0-.38-.01s-.13-.03-.19-.08-.08-.11-.08-.21c0-.21.05-.34.15-.39s.26-.07.5-.07h7.46c1.25,0,2.23.32,2.95.95.72.63,1.08,1.41,1.08,2.32,0,.96-.43,1.88-1.28,2.76s-1.98,1.48-3.39,1.8c.95.11,1.74.45,2.37,1.03.64.58.96,1.33.96,2.27,0,1.3-.62,2.5-1.85,3.61-1.23,1.11-2.67,1.66-4.33,1.66h-7.93c-.16,0-.27,0-.33-.01s-.13-.03-.18-.08c-.05-.04-.08-.11-.08-.21Zm4.31-.99c-.03.14-.05.24-.05.3s0,.11.02.14c.02.03.08.06.19.08.11.02.29.03.53.03h2.98c1.27,0,2.35-.5,3.24-1.5.89-1,1.33-2.11,1.33-3.32,0-.24-.02-.48-.07-.71-.05-.23-.14-.51-.28-.85-.14-.33-.38-.61-.73-.82-.35-.21-.79-.32-1.3-.32h-4.13l-1.68,6.74s-.01.09-.04.23Zm1.87-7.5h3.18c1.3,0,2.4-.47,3.28-1.42s1.32-1.97,1.32-3.06c0-.24-.02-.47-.07-.7-.05-.22-.14-.47-.29-.75s-.38-.5-.71-.67-.73-.25-1.2-.25h-2.84c-.42,0-.69.04-.83.12-.14.08-.26.32-.36.73l-1.47,6.01Z" style="fill:#231815;"/><path d="m790.31,468.07c0-1.37.17-2.43.52-3.18.48-1.11,1.29-1.67,2.43-1.67.24,0,.49.03.74.1s.54.22.86.47c.32.25.58.58.78.99.37.79.56,1.88.56,3.28s-.17,2.41-.52,3.16c-.51,1.08-1.32,1.63-2.43,1.63-.42,0-.84-.11-1.27-.32s-.77-.58-1.04-1.09c-.42-.77-.63-1.89-.63-3.37Zm1.16-.17c0,1.41.05,2.39.15,2.95.11.61.33,1.04.64,1.3.31.26.64.39.99.39.37,0,.72-.14,1.03-.42.31-.28.52-.72.61-1.33.1-.6.16-1.56.15-2.9,0-1.3-.05-2.21-.14-2.73-.12-.61-.35-1.03-.67-1.27-.33-.24-.65-.37-.98-.37-.12,0-.25.02-.38.05-.13.04-.29.11-.47.21-.19.1-.35.29-.5.55-.14.26-.25.58-.32.98-.07.51-.11,1.36-.11,2.58Z" style="fill:#231815;"/></g><g><path d="m535.24,510.57c0-.21.05-.34.15-.39s.26-.07.5-.07c.78,0,1.28-.06,1.5-.18.22-.12.38-.4.47-.83l3.25-13.03c.06-.23.09-.38.09-.45,0-.18-.11-.29-.33-.34s-.58-.07-1.06-.07c-.18,0-.3,0-.38-.01s-.13-.03-.19-.08-.08-.11-.08-.21c0-.21.05-.34.15-.39s.26-.07.5-.07h7.46c1.25,0,2.23.32,2.95.95.72.63,1.08,1.41,1.08,2.32,0,.96-.43,1.88-1.28,2.76s-1.98,1.48-3.39,1.8c.95.11,1.74.45,2.37,1.03.64.58.96,1.33.96,2.27,0,1.3-.62,2.5-1.85,3.61-1.23,1.11-2.67,1.66-4.33,1.66h-7.93c-.16,0-.27,0-.33-.01s-.13-.03-.18-.08c-.05-.04-.08-.11-.08-.21Zm4.31-.99c-.04.14-.05.24-.05.3s0,.11.02.14c.02.03.08.06.19.08.11.02.29.03.53.03h2.98c1.27,0,2.35-.5,3.24-1.5.89-1,1.33-2.11,1.33-3.32,0-.24-.02-.48-.07-.71-.05-.23-.14-.51-.28-.85-.14-.33-.38-.61-.73-.82-.35-.21-.79-.32-1.3-.32h-4.13l-1.68,6.74s-.01.09-.04.23Zm1.87-7.5h3.18c1.3,0,2.4-.47,3.28-1.42s1.32-1.97,1.32-3.06c0-.24-.02-.47-.07-.7s-.14-.47-.29-.75-.38-.5-.71-.67-.73-.25-1.2-.25h-2.84c-.42,0-.69.04-.83.12-.14.08-.26.32-.36.73l-1.47,6.01Z" style="fill:#231815;"/><path d="m553.67,513.55c0,.42-.25.81-.78.81s-.77-.39-.77-.81.25-.8.77-.8.78.38.78.8Zm4.64,0c0,.42-.24.81-.77.81s-.77-.39-.77-.81.24-.8.77-.8.77.38.77.8Zm4.66,0c0,.42-.25.81-.78.81s-.77-.39-.77-.81.25-.8.77-.8.78.38.78.8Z" style="fill:#231815;"/></g><g><path d="m611.8,467.76c0-.21.05-.34.15-.39s.26-.07.5-.07c.78,0,1.28-.06,1.5-.18.22-.12.38-.4.47-.83l3.25-13.03c.06-.23.09-.38.09-.45,0-.18-.11-.29-.33-.34s-.58-.07-1.06-.07c-.18,0-.3,0-.38-.01s-.13-.03-.19-.08c-.05-.04-.08-.11-.08-.21,0-.21.05-.34.15-.39.1-.05.26-.07.5-.07h7.46c1.25,0,2.23.32,2.95.95s1.08,1.41,1.08,2.32c0,.96-.43,1.88-1.28,2.76s-1.98,1.48-3.39,1.8c.95.11,1.74.45,2.37,1.03.64.58.96,1.33.96,2.27,0,1.3-.62,2.5-1.85,3.61-1.23,1.11-2.67,1.66-4.33,1.66h-7.93c-.16,0-.27,0-.33-.01s-.13-.03-.18-.08c-.05-.04-.08-.11-.08-.21Zm4.31-.99c-.03.14-.05.24-.05.3s0,.11.02.14c.02.03.08.06.19.08.11.02.29.03.53.03h2.98c1.27,0,2.35-.5,3.24-1.5.89-1,1.33-2.11,1.33-3.32,0-.24-.02-.48-.07-.71-.05-.23-.14-.51-.28-.85-.14-.33-.38-.61-.73-.82-.35-.21-.79-.32-1.3-.32h-4.13l-1.68,6.74s-.01.09-.04.23Zm1.87-7.5h3.18c1.3,0,2.4-.47,3.28-1.42.88-.95,1.33-1.97,1.33-3.06,0-.24-.02-.47-.07-.7-.05-.22-.14-.47-.29-.75s-.38-.5-.71-.67-.73-.25-1.2-.25h-2.84c-.42,0-.69.04-.83.12-.14.08-.26.32-.36.73l-1.47,6.01Z" style="fill:#231815;"/><path d="m627.98,475.87c0-.12.03-.2.09-.23.06-.03.15-.04.29-.04.46,0,.75-.03.88-.1.13-.07.22-.23.27-.48l1.89-7.6c.04-.13.05-.22.05-.26,0-.1-.06-.17-.19-.2s-.34-.04-.62-.04c-.11,0-.18,0-.22,0-.04,0-.08-.02-.11-.04-.03-.03-.05-.07-.05-.12,0-.18.09-.27.27-.27s.46,0,.83.02.66.02.85.02.46,0,.83-.02.64-.02.82-.02c.13,0,.2.06.2.18,0,.11-.03.18-.09.21-.06.03-.17.04-.34.04-.43,0-.71.03-.83.1-.12.07-.21.22-.27.46l-1.11,4.46,4.93-4.1c.3-.25.46-.46.46-.63s-.12-.27-.36-.29c-.13,0-.2-.06-.2-.17,0-.18.09-.27.27-.27.16,0,.41,0,.74.02.34.01.59.02.75.02.11,0,.28,0,.5-.02s.38-.02.47-.02c.11,0,.16.06.15.17,0,.16-.08.25-.25.27-.61.05-1.34.44-2.19,1.15l-2.58,2.14,1.83,4.85c.08.21.18.36.29.42.11.07.3.11.55.12.17,0,.25.06.25.17,0,.18-.08.27-.24.27-.13,0-.34,0-.63-.02-.29-.01-.5-.02-.64-.02-.18,0-.44,0-.79.02-.35.01-.61.02-.78.02-.13,0-.2-.06-.19-.19,0-.17.09-.25.27-.25.47,0,.71-.15.71-.46,0-.05-.03-.14-.08-.28l-1.46-3.9-1.93,1.62-.5,2.01c-.12.43-.19.69-.19.78,0,.05,0,.09.03.12s.09.05.22.08c.12.03.32.04.57.04.11,0,.19,0,.23,0,.04,0,.08.02.1.05.03.03.04.07.04.12,0,.17-.09.26-.27.26s-.46,0-.83-.02c-.38-.01-.66-.02-.85-.02s-.46,0-.83.02c-.37.01-.64.02-.82.02-.13,0-.2-.06-.2-.17Z" style="fill:#231815;"/><path d="m639.58,470.53h8.16v.71h-8.16v-.71Z" style="fill:#231815;"/><path d="m650.68,468.06v-.44c1.13,0,1.99-.3,2.57-.9.15,0,.24.02.26.05.03.04.04.14.04.31v7.84c0,.28.07.46.21.55.14.09.52.13,1.14.13h.46v.44c-.33-.03-1.08-.04-2.27-.04s-1.94.01-2.26.04v-.44h.44c.59,0,.95-.04,1.09-.13.14-.08.21-.27.21-.55v-7.24c-.5.25-1.14.37-1.91.37Z" style="fill:#231815;"/></g><polygon points="78.05 505.58 38.45 574.17 117.66 574.17 78.05 505.58" style="fill:#fff; stroke:#231815; stroke-miterlimit:10; stroke-width:6px;"/><polygon points="159.61 461.06 120.01 529.66 199.22 529.66 159.61 461.06" style="fill:#fff; stroke:#231815; stroke-miterlimit:10; stroke-width:6px;"/><polygon points="239.68 418.34 200.07 486.94 279.28 486.94 239.68 418.34" style="fill:#fff; stroke:#231815; stroke-miterlimit:10; stroke-width:6px;"/><polygon points="316.08 375.35 276.48 443.95 355.69 443.95 316.08 375.35" style="fill:#fff; stroke:#231815; stroke-miterlimit:10; stroke-width:6px;"/><line x1="79.45" y1="502.37" x2="317.29" y2="371.65" style="fill:none; stroke:#231815; stroke-miterlimit:10; stroke-width:6px;"/><g><path d="m303.06,427.63c0-.21.05-.34.15-.39s.26-.07.5-.07c.78,0,1.28-.06,1.5-.18.22-.12.38-.4.47-.83l3.25-13.03c.06-.23.09-.38.09-.45,0-.18-.11-.29-.33-.34s-.58-.07-1.06-.07c-.18,0-.3,0-.38-.01s-.13-.03-.19-.08c-.05-.04-.08-.11-.08-.21,0-.21.05-.34.15-.39.1-.05.26-.07.5-.07h7.46c1.25,0,2.23.32,2.95.95.72.63,1.08,1.41,1.08,2.32,0,.96-.43,1.88-1.28,2.76s-1.98,1.48-3.39,1.8c.95.11,1.74.45,2.37,1.03.64.58.96,1.33.96,2.27,0,1.3-.62,2.5-1.85,3.61-1.23,1.11-2.67,1.66-4.33,1.66h-7.93c-.16,0-.27,0-.33-.01s-.13-.03-.18-.08c-.05-.04-.08-.11-.08-.21Zm4.31-.99c-.03.14-.05.24-.05.3s0,.11.02.14c.02.03.08.06.19.08.11.02.29.03.53.03h2.98c1.27,0,2.35-.5,3.24-1.5.89-1,1.33-2.11,1.33-3.32,0-.24-.02-.48-.07-.71-.05-.23-.14-.51-.28-.85-.14-.33-.38-.61-.73-.82-.35-.21-.79-.32-1.3-.32h-4.13l-1.68,6.74s-.01.09-.04.23Zm1.87-7.5h3.18c1.3,0,2.4-.47,3.28-1.42.88-.95,1.32-1.97,1.32-3.06,0-.24-.02-.47-.07-.7s-.14-.47-.29-.75-.38-.5-.71-.67-.73-.25-1.2-.25h-2.84c-.42,0-.69.04-.83.12-.14.08-.26.32-.36.73l-1.47,6.01Z" style="fill:#231815;"/><path d="m319.23,435.74c0-.12.03-.2.09-.23.06-.03.15-.04.29-.04.46,0,.75-.03.87-.1.13-.07.22-.23.27-.48l1.89-7.6c.04-.13.05-.22.05-.26,0-.1-.06-.17-.19-.2s-.34-.04-.62-.04c-.1,0-.18,0-.22,0-.04,0-.08-.02-.11-.04s-.05-.07-.05-.12c0-.18.09-.27.27-.27s.46,0,.83.02.66.02.85.02.46,0,.83-.02c.37-.01.64-.02.82-.02.13,0,.2.06.2.18,0,.11-.03.18-.09.21s-.17.04-.34.04c-.43,0-.7.03-.83.1-.12.07-.21.22-.27.46l-1.11,4.46,4.93-4.1c.3-.25.46-.46.46-.63s-.12-.27-.36-.29c-.13,0-.2-.06-.2-.17,0-.18.09-.27.27-.27.16,0,.41,0,.74.02.34.01.59.02.75.02.11,0,.28,0,.5-.02s.38-.02.47-.02c.1,0,.15.06.15.17,0,.16-.08.25-.25.27-.61.05-1.34.44-2.19,1.15l-2.58,2.14,1.83,4.85c.08.21.18.36.29.42.11.07.3.11.55.12.17,0,.25.06.25.17,0,.18-.08.27-.24.27-.13,0-.34,0-.63-.02-.29-.01-.5-.02-.64-.02-.18,0-.44,0-.79.02-.35.01-.61.02-.78.02-.13,0-.2-.06-.19-.19,0-.17.09-.25.27-.25.47,0,.71-.15.71-.46,0-.05-.03-.14-.08-.28l-1.46-3.9-1.93,1.62-.5,2.01c-.12.43-.19.69-.19.78,0,.05,0,.09.03.12.02.03.09.05.22.08.13.03.32.04.57.04.11,0,.19,0,.23,0,.04,0,.07.02.1.05.03.03.04.07.04.12,0,.17-.09.26-.27.26s-.46,0-.83-.02c-.38-.01-.66-.02-.85-.02s-.46,0-.83.02c-.37.01-.64.02-.82.02-.13,0-.2-.06-.2-.17Z" style="fill:#231815;"/></g><g><path d="m66.45,556.43c0-.21.05-.34.15-.39s.26-.07.5-.07c.78,0,1.28-.06,1.5-.18.22-.12.38-.4.47-.83l3.25-13.03c.06-.23.09-.38.09-.45,0-.18-.11-.29-.33-.34s-.58-.07-1.06-.07c-.18,0-.3,0-.38-.01s-.13-.03-.19-.08c-.05-.04-.08-.11-.08-.21,0-.21.05-.34.15-.39.1-.05.26-.07.5-.07h7.46c1.25,0,2.23.32,2.95.95.72.63,1.08,1.41,1.08,2.32,0,.96-.43,1.88-1.28,2.76s-1.98,1.48-3.39,1.8c.95.11,1.74.45,2.37,1.03.64.58.96,1.33.96,2.27,0,1.3-.62,2.5-1.85,3.61-1.23,1.11-2.67,1.66-4.33,1.66h-7.93c-.16,0-.27,0-.33-.01s-.13-.03-.18-.08c-.05-.04-.08-.11-.08-.21Zm4.31-.99c-.03.14-.05.24-.05.3s0,.11.02.14c.02.03.08.06.19.08.11.02.29.03.53.03h2.98c1.27,0,2.35-.5,3.24-1.5.89-1,1.33-2.11,1.33-3.32,0-.24-.02-.48-.07-.71-.05-.23-.14-.51-.28-.85-.14-.33-.38-.61-.73-.82-.35-.21-.79-.32-1.3-.32h-4.13l-1.68,6.74s-.01.09-.04.23Zm1.87-7.5h3.18c1.3,0,2.4-.47,3.28-1.42.88-.95,1.32-1.97,1.32-3.06,0-.24-.02-.47-.07-.7s-.14-.47-.29-.75-.38-.5-.71-.67-.73-.25-1.2-.25h-2.84c-.42,0-.69.04-.83.12-.14.08-.26.32-.36.73l-1.47,6.01Z" style="fill:#231815;"/><path d="m82.3,560.24c0-1.37.17-2.43.52-3.18.48-1.11,1.29-1.67,2.43-1.67.24,0,.49.03.74.1s.54.22.86.47c.32.25.58.58.78.99.37.79.56,1.88.56,3.28s-.17,2.41-.52,3.16c-.51,1.08-1.32,1.63-2.43,1.63-.42,0-.84-.11-1.27-.32s-.77-.58-1.04-1.09c-.42-.77-.63-1.89-.63-3.37Zm1.16-.17c0,1.41.05,2.39.15,2.95.11.61.33,1.04.64,1.3s.64.39.99.39c.37,0,.72-.14,1.03-.42s.52-.72.61-1.33c.1-.6.15-1.56.15-2.9,0-1.3-.05-2.21-.14-2.73-.12-.61-.35-1.03-.67-1.27-.33-.24-.65-.37-.98-.37-.12,0-.25.02-.38.05-.13.04-.29.11-.47.21-.19.1-.35.29-.5.55-.14.26-.25.58-.32.98-.07.51-.11,1.36-.11,2.58Z" style="fill:#231815;"/></g><g><path d="m144.21,512.82c0-.21.05-.34.15-.39s.26-.07.5-.07c.78,0,1.28-.06,1.5-.18.22-.12.38-.4.47-.83l3.25-13.03c.06-.23.09-.38.09-.45,0-.18-.11-.29-.33-.34s-.58-.07-1.06-.07c-.18,0-.3,0-.38-.01s-.13-.03-.19-.08c-.05-.04-.08-.11-.08-.21,0-.21.05-.34.15-.39.1-.05.26-.07.5-.07h7.46c1.25,0,2.23.32,2.95.95.72.63,1.08,1.41,1.08,2.32,0,.96-.43,1.88-1.28,2.76s-1.98,1.48-3.39,1.8c.95.11,1.74.45,2.37,1.03.64.58.96,1.33.96,2.27,0,1.3-.62,2.5-1.85,3.61-1.23,1.11-2.67,1.66-4.33,1.66h-7.93c-.16,0-.27,0-.33-.01s-.13-.03-.18-.08c-.05-.04-.08-.11-.08-.21Zm4.31-.99c-.03.14-.05.24-.05.3s0,.11.02.14c.02.03.08.06.19.08.11.02.29.03.53.03h2.98c1.27,0,2.35-.5,3.24-1.5.89-1,1.33-2.11,1.33-3.32,0-.24-.02-.48-.07-.71-.05-.23-.14-.51-.28-.85-.14-.33-.38-.61-.73-.82-.35-.21-.79-.32-1.3-.32h-4.13l-1.68,6.74s-.01.09-.04.23Zm1.87-7.5h3.18c1.3,0,2.4-.47,3.28-1.42.88-.95,1.32-1.97,1.32-3.06,0-.24-.02-.47-.07-.7s-.14-.47-.29-.75-.38-.5-.71-.67-.73-.25-1.2-.25h-2.84c-.42,0-.69.04-.83.12-.14.08-.26.32-.36.73l-1.47,6.01Z" style="fill:#231815;"/><path d="m162.64,515.79c0,.42-.25.81-.78.81s-.77-.39-.77-.81.25-.8.77-.8.78.38.78.8Zm4.65,0c0,.42-.24.81-.77.81s-.77-.39-.77-.81.24-.8.77-.8.77.38.77.8Zm4.66,0c0,.42-.25.81-.78.81s-.77-.39-.77-.81.25-.8.77-.8.78.38.78.8Z" style="fill:#231815;"/></g><g><path d="m220.77,470.01c0-.21.05-.34.15-.39s.26-.07.5-.07c.78,0,1.28-.06,1.5-.18.22-.12.38-.4.47-.83l3.25-13.03c.06-.23.09-.38.09-.45,0-.18-.11-.29-.33-.34s-.58-.07-1.06-.07c-.18,0-.3,0-.38-.01s-.13-.03-.19-.08c-.05-.04-.08-.11-.08-.21,0-.21.05-.34.15-.39.1-.05.26-.07.5-.07h7.46c1.25,0,2.23.32,2.95.95.72.63,1.08,1.41,1.08,2.32,0,.96-.43,1.88-1.28,2.76s-1.98,1.48-3.39,1.8c.95.11,1.74.45,2.37,1.03.64.58.96,1.33.96,2.27,0,1.3-.62,2.5-1.85,3.61-1.23,1.11-2.67,1.66-4.33,1.66h-7.93c-.16,0-.27,0-.33-.01s-.13-.03-.18-.08c-.05-.04-.08-.11-.08-.21Zm4.31-.99c-.03.14-.05.24-.05.3s0,.11.02.14c.02.03.08.06.19.08.11.02.29.03.53.03h2.98c1.27,0,2.35-.5,3.24-1.5.89-1,1.33-2.11,1.33-3.32,0-.24-.02-.48-.07-.71-.05-.23-.14-.51-.28-.85-.14-.33-.38-.61-.73-.82-.35-.21-.79-.32-1.3-.32h-4.13l-1.68,6.74s-.01.09-.04.23Zm1.87-7.5h3.18c1.3,0,2.4-.47,3.28-1.42.88-.95,1.32-1.97,1.32-3.06,0-.24-.02-.47-.07-.7s-.14-.47-.29-.75-.38-.5-.71-.67-.73-.25-1.2-.25h-2.84c-.42,0-.69.04-.83.12-.14.08-.26.32-.36.73l-1.47,6.01Z" style="fill:#231815;"/><path d="m236.95,478.12c0-.12.03-.2.09-.23.06-.03.15-.04.29-.04.46,0,.75-.03.87-.1.13-.07.22-.23.27-.48l1.89-7.6c.04-.13.05-.22.05-.26,0-.1-.06-.17-.19-.2s-.34-.04-.62-.04c-.1,0-.18,0-.22,0-.04,0-.08-.02-.11-.04s-.05-.07-.05-.12c0-.18.09-.27.27-.27s.46,0,.83.02.66.02.85.02.46,0,.83-.02c.37-.01.64-.02.82-.02.13,0,.2.06.2.18,0,.11-.03.18-.09.21s-.17.04-.34.04c-.43,0-.7.03-.83.1-.12.07-.21.22-.27.46l-1.11,4.46,4.93-4.1c.3-.25.46-.46.46-.63s-.12-.27-.36-.29c-.13,0-.2-.06-.2-.17,0-.18.09-.27.27-.27.16,0,.41,0,.74.02.34.01.59.02.75.02.11,0,.28,0,.5-.02s.38-.02.47-.02c.1,0,.15.06.15.17,0,.16-.08.25-.25.27-.61.05-1.34.44-2.19,1.15l-2.58,2.14,1.83,4.85c.08.21.18.36.29.42.11.07.3.11.55.12.17,0,.25.06.25.17,0,.18-.08.27-.24.27-.13,0-.34,0-.63-.02-.29-.01-.5-.02-.64-.02-.18,0-.44,0-.79.02-.35.01-.61.02-.78.02-.13,0-.2-.06-.19-.19,0-.17.09-.25.27-.25.47,0,.71-.15.71-.46,0-.05-.03-.14-.08-.28l-1.46-3.9-1.93,1.62-.5,2.01c-.12.43-.19.69-.19.78,0,.05,0,.09.03.12.02.03.09.05.22.08.13.03.32.04.57.04.11,0,.19,0,.23,0,.04,0,.07.02.1.05.03.03.04.07.04.12,0,.17-.09.26-.27.26s-.46,0-.83-.02c-.38-.01-.66-.02-.85-.02s-.46,0-.83.02c-.37.01-.64.02-.82.02-.13,0-.2-.06-.2-.17Z" style="fill:#231815;"/><path d="m248.55,472.78h8.16v.71h-8.16v-.71Z" style="fill:#231815;"/><path d="m259.65,470.31v-.44c1.13,0,1.99-.3,2.57-.9.15,0,.24.02.26.05.03.04.04.14.04.31v7.84c0,.28.07.46.21.55.14.09.52.13,1.14.13h.46v.44c-.33-.03-1.08-.04-2.27-.04s-1.94.01-2.26.04v-.44h.44c.59,0,.95-.04,1.09-.13.14-.08.21-.27.21-.55v-7.24c-.51.25-1.14.37-1.91.37Z" style="fill:#231815;"/></g><path d="m364.89,109.8c0-.33.29-.48.88-.47h25.64c.83,0,1.26.16,1.27.47,0,.3-.36.45-1.07.45h-25.89c-.56,0-.84-.15-.84-.45Zm0,8.2c.03-.33.31-.49.84-.49h25.72c.81,0,1.22.15,1.23.45,0,.33-.38.49-1.15.47h-25.52c-.75.01-1.13-.13-1.13-.43Z" style="fill:#231815;"/><circle cx="315.68" cy="321.97" r="9.16" style="fill:#231815;"/><line x1="315.68" y1="322.87" x2="315.68" y2="375.35" style="fill:none; stroke:#231815; stroke-miterlimit:10; stroke-width:6px;"/><path d="m279.34,319.67c-17.82-.34-69.46,0-129.96,41.23s-72.92,94-77.98,111.14" style="fill:none; stroke:#e60012; stroke-linecap:round; stroke-linejoin:round; stroke-width:3px;"/><polyline points="265.34 306.1 280.69 319.78 264.54 332.05" style="fill:none; stroke:#e60012; stroke-linecap:round; stroke-linejoin:round; stroke-width:3px;"/><line x1="705.48" y1="369.78" x2="784.98" y2="410.49" style="fill:none; stroke:#231815; stroke-miterlimit:10; stroke-width:6px;"/></svg>